<svg width="32" height="32" viewBox="0 0 32 32" fill="none" xmlns="http://www.w3.org/2000/svg">
<path d="M25.3333 2H6.66667C5.18667 2 4 3.2 4 4.66667V23.3333C4 24.8 5.18667 26 6.66667 26H12L16 30L20 26H25.3333C26.8 26 28 24.8 28 23.3333V4.66667C28 3.2 26.8 2 25.3333 2ZM25.3333 23.3333H18.8933L16 26.2267L13.1067 23.3333H6.66667V4.66667H25.3333V23.3333ZM14.6667 19.3333H17.3333V22H14.6667V19.3333ZM16 8.66667C17.4667 8.66667 18.6667 9.86667 18.6667 11.3333C18.6667 14 14.6667 13.6667 14.6667 18H17.3333C17.3333 15 21.3333 14.6667 21.3333 11.3333C21.3333 8.38667 18.9467 6 16 6C13.0533 6 10.6667 8.38667 10.6667 11.3333H13.3333C13.3333 9.86667 14.5333 8.66667 16 8.66667Z" fill="white"/>
</svg>
