<svg width="33" height="32" viewBox="0 0 33 32" fill="none" xmlns="http://www.w3.org/2000/svg">
<path d="M19 16L16.3333 18.6666L13.6666 16L16.3333 13.3333L19 16ZM16.3333 7.99998L19.16 10.8266L22.4933 7.49331L16.3333 1.33331L10.1733 7.49331L13.5066 10.8266L16.3333 7.99998ZM8.33329 16L11.16 13.1733L7.82663 9.83998L1.66663 16L7.82663 22.16L11.16 18.8266L8.33329 16ZM24.3333 16L21.5066 18.8266L24.84 22.16L31 16L24.84 9.83998L21.5066 13.1733L24.3333 16ZM16.3333 24L13.5066 21.1733L10.1733 24.5066L16.3333 30.6666L22.4933 24.5066L19.16 21.1733L16.3333 24Z" fill="white"/>
</svg>
