<svg width="27" height="26" viewBox="0 0 27 26" fill="none" xmlns="http://www.w3.org/2000/svg">
<path d="M16.6999 3.39996H6.03324C4.8599 3.39996 3.91057 4.35996 3.91057 5.5333L3.8999 20.4666C3.8999 21.64 4.84924 22.6 6.02257 22.6H20.9666C22.1399 22.6 23.0999 21.64 23.0999 20.4666V9.79996L16.6999 3.39996ZM6.03324 20.4666V5.5333H15.6332V10.8666H20.9666V20.4666H6.03324ZM10.2999 8.7333C10.2999 9.31996 9.8199 9.79996 9.23324 9.79996C8.64657 9.79996 8.16657 9.31996 8.16657 8.7333C8.16657 8.14663 8.64657 7.66663 9.23324 7.66663C9.8199 7.66663 10.2999 8.14663 10.2999 8.7333ZM10.2999 13C10.2999 13.5866 9.8199 14.0666 9.23324 14.0666C8.64657 14.0666 8.16657 13.5866 8.16657 13C8.16657 12.4133 8.64657 11.9333 9.23324 11.9333C9.8199 11.9333 10.2999 12.4133 10.2999 13ZM10.2999 17.2666C10.2999 17.8533 9.8199 18.3333 9.23324 18.3333C8.64657 18.3333 8.16657 17.8533 8.16657 17.2666C8.16657 16.68 8.64657 16.2 9.23324 16.2C9.8199 16.2 10.2999 16.68 10.2999 17.2666Z" fill="white"/>
</svg>
