<svg width="27" height="26" viewBox="0 0 27 26" fill="none" xmlns="http://www.w3.org/2000/svg">
<path d="M2.83327 17.2667H24.1666V19.4H2.83327V17.2667ZM4.05993 12.9467L4.9666 11.368L5.87327 12.9467L7.25993 12.1467L6.35327 10.568H8.1666V8.96801H6.35327L7.25993 7.40001L5.87327 6.60001L4.9666 8.16801L4.05993 6.60001L2.67327 7.40001L3.57993 8.96801H1.7666V10.568H3.57993L2.67327 12.1467L4.05993 12.9467ZM11.2066 12.1467L12.5933 12.9467L13.4999 11.368L14.4066 12.9467L15.7933 12.1467L14.8866 10.568H16.6999V8.96801H14.8866L15.7933 7.40001L14.4066 6.60001L13.4999 8.16801L12.5933 6.60001L11.2066 7.40001L12.1133 8.96801H10.2999V10.568H12.1133L11.2066 12.1467ZM25.2333 8.96801H23.4199L24.3266 7.40001L22.9399 6.60001L22.0333 8.16801L21.1266 6.60001L19.7399 7.40001L20.6466 8.96801H18.8333V10.568H20.6466L19.7399 12.1467L21.1266 12.9467L22.0333 11.368L22.9399 12.9467L24.3266 12.1467L23.4199 10.568H25.2333V8.96801Z" fill="white"/>
</svg>
